<?xml version="1.0" standalone="no"?>
<!DOCTYPE svg PUBLIC "-//W3C//DTD SVG 20010904//EN"
 "http://www.w3.org/TR/2001/REC-SVG-20010904/DTD/svg10.dtd">
<svg version="1.0" xmlns="http://www.w3.org/2000/svg"
 width="256.000000pt" height="256.000000pt" viewBox="0 0 256.000000 256.000000"
 preserveAspectRatio="xMidYMid meet">

<g transform="translate(0.000000,256.000000) scale(0.100000,-0.100000)"
fill="#000000" stroke="none">
<path d="M2331 2445 c-151 -73 -442 -291 -786 -590 -366 -319 -851 -776 -893
-843 -78 -122 -82 -275 -11 -357 45 -51 102 -68 202 -63 136 7 166 29 409 298
804 894 1100 1254 1197 1460 35 74 38 92 15 114 -23 24 -52 20 -133 -19z m-11
-134 c0 -27 -318 -403 -894 -1061 -435 -497 -437 -498 -490 -525 -163 -82
-291 49 -207 213 22 43 144 163 401 393 570 510 1142 989 1181 989 5 0 9 -4 9
-9z"/>
<path d="M425 671 c-47 -12 -79 -37 -105 -83 -20 -36 -25 -59 -27 -136 -2 -83
-6 -100 -34 -153 -35 -64 -61 -88 -127 -114 -23 -10 -42 -21 -42 -25 0 -5 15
-19 33 -32 26 -19 48 -24 119 -26 105 -5 191 18 283 73 184 111 230 248 131
392 -55 80 -151 124 -231 104z"/>
</g>
</svg>
