<?xml version="1.0" standalone="no"?>
<!DOCTYPE svg PUBLIC "-//W3C//DTD SVG 20010904//EN"
 "http://www.w3.org/TR/2001/REC-SVG-20010904/DTD/svg10.dtd">
<svg version="1.0" xmlns="http://www.w3.org/2000/svg"
 width="512.000000pt" height="512.000000pt" viewBox="0 0 512.000000 512.000000"
 preserveAspectRatio="xMidYMid meet">

<g transform="translate(0.000000,512.000000) scale(0.100000,-0.100000)"
fill="#000000" stroke="none">
<path d="M2884 4521 c-69 -42 -96 -110 -74 -184 10 -36 106 -137 693 -726 375
-375 700 -696 721 -712 31 -23 50 -29 88 -29 115 0 190 97 158 203 -9 32 -49
79 -193 224 l-181 183 110 113 c121 123 144 156 168 236 20 69 20 133 0 202
-23 80 -61 133 -182 251 -143 141 -186 163 -327 163 -141 0 -181 -20 -333
-169 l-118 -115 -159 160 c-88 89 -180 174 -204 190 -54 35 -120 39 -167 10z
m1099 -480 c58 -59 87 -96 87 -111 0 -16 -32 -56 -100 -124 l-99 -101 -116
115 -116 115 99 98 c129 127 129 127 245 8z"/>
<path d="M2717 3690 c-20 -5 -56 -19 -80 -31 -51 -25 -1736 -1702 -1772 -1764
-31 -52 -254 -595 -271 -660 -85 -314 202 -631 529 -585 51 8 149 43 375 136
169 69 324 139 347 154 22 16 419 408 882 872 666 668 846 854 867 894 33 68
46 153 35 228 -18 112 -48 151 -337 439 -305 303 -323 316 -460 323 -42 2 -94
-1 -115 -6z m356 -549 c197 -196 240 -243 240 -266 0 -22 -36 -62 -189 -216
l-189 -189 -530 0 -530 0 455 455 c351 351 461 455 480 455 18 0 82 -58 263
-239z"/>
</g>
</svg>
