<?xml version="1.0" standalone="no"?>
<!DOCTYPE svg PUBLIC "-//W3C//DTD SVG 20010904//EN"
 "http://www.w3.org/TR/2001/REC-SVG-20010904/DTD/svg10.dtd">
<svg version="1.0" xmlns="http://www.w3.org/2000/svg"
 width="512.000000pt" height="512.000000pt" viewBox="0 0 512.000000 512.000000"
 preserveAspectRatio="xMidYMid meet">

<g transform="translate(0.000000,512.000000) scale(0.100000,-0.100000)"
fill="#000000" stroke="none">
<path d="M1920 4375 l-104 -105 -481 -2 -480 -3 -3 -317 -2 -317 107 -3 108
-3 5 -1350 5 -1350 26 -67 c76 -195 220 -336 409 -401 65 -22 66 -22 918 -25
950 -3 919 -5 1062 66 110 54 223 168 279 282 74 152 71 72 71 1538 l0 1312
105 0 105 0 0 320 0 320 -478 0 -477 0 -105 105 -105 105 -430 0 -430 0 -105
-105z m965 -215 l111 -110 422 0 422 0 0 -105 0 -105 -1385 0 -1385 0 0 105 0
105 423 0 422 0 110 110 110 110 319 0 319 0 112 -110z m743 -1815 c2 -893 -1
-1299 -8 -1344 -29 -169 -144 -297 -311 -345 -50 -15 -146 -16 -880 -14 l-824
3 -68 32 c-93 44 -169 119 -215 212 l-37 75 -3 1333 -2 1333 1172 -2 1173 -3
3 -1280z"/>
<path d="M1710 2135 l0 -1065 105 0 105 0 0 1065 0 1065 -105 0 -105 0 0
-1065z"/>
<path d="M2990 2135 l0 -1065 105 0 105 0 0 1065 0 1065 -105 0 -105 0 0
-1065z"/>
</g>
</svg>
