<?xml version="1.0" standalone="no"?>
<!DOCTYPE svg PUBLIC "-//W3C//DTD SVG 20010904//EN"
 "http://www.w3.org/TR/2001/REC-SVG-20010904/DTD/svg10.dtd">
<svg version="1.0" xmlns="http://www.w3.org/2000/svg"
 width="512.000000pt" height="512.000000pt" viewBox="0 0 512.000000 512.000000"
 preserveAspectRatio="xMidYMid meet">

<g transform="translate(0.000000,512.000000) scale(0.100000,-0.100000)"
fill="#000000" stroke="none">
<path d="M2823 4580 c-29 -10 -72 -32 -95 -48 -47 -32 -1357 -1345 -1841
-1845 -263 -270 -302 -315 -330 -374 -57 -124 -48 -291 23 -403 16 -25 253
-268 527 -542 l498 -496 55 -12 c40 -8 397 -10 1330 -8 l1275 3 3 213 2 212
-747 0 -748 0 796 798 c871 873 835 832 861 980 9 54 9 85 0 134 -26 138 -22
133 -637 755 -543 549 -569 574 -643 610 -71 36 -82 38 -176 40 -78 2 -113 -2
-153 -17z m-183 -1785 l525 -525 -495 -495 -495 -495 -190 0 -190 0 -427 428
-427 427 582 593 c320 325 584 592 587 592 3 0 241 -236 530 -525z"/>
</g>
</svg>
