<?xml version="1.0" standalone="no"?>
<!DOCTYPE svg PUBLIC "-//W3C//DTD SVG 20010904//EN"
 "http://www.w3.org/TR/2001/REC-SVG-20010904/DTD/svg10.dtd">
<svg version="1.0" xmlns="http://www.w3.org/2000/svg"
 width="512.000000pt" height="512.000000pt" viewBox="0 0 512.000000 512.000000"
 preserveAspectRatio="xMidYMid meet">

<g transform="translate(0.000000,512.000000) scale(0.100000,-0.100000)"
fill="#000000" stroke="none">
<path d="M4315 5043 c-181 -24 -471 -153 -715 -316 -230 -154 -313 -227 -865
-752 -956 -911 -1320 -1297 -1704 -1805 -396 -526 -756 -1163 -862 -1525 -24
-86 -36 -231 -21 -273 10 -30 8 -33 -69 -105 -69 -65 -79 -79 -79 -109 0 -45
34 -78 80 -78 29 0 45 11 106 71 70 70 72 71 105 61 100 -31 217 -17 396 46
502 180 1052 591 1677 1252 111 118 319 341 461 495 141 154 266 289 276 300
16 16 14 6 -10 -61 -64 -175 -63 -331 4 -472 111 -235 367 -322 542 -184 129
103 148 278 41 382 l-40 38 64 44 c94 67 158 102 448 245 215 107 285 146 370
211 297 227 497 534 575 885 23 100 30 360 15 499 -18 172 -78 518 -106 616
-31 107 -91 238 -119 261 -12 9 -30 41 -40 70 -32 98 -116 167 -235 195 -60
15 -219 19 -295 9z m308 -182 c70 -34 81 -61 74 -191 -7 -130 -25 -197 -86
-325 -74 -153 -292 -430 -760 -965 -321 -366 -941 -1053 -946 -1048 -2 2 -22
35 -45 73 -69 113 -148 213 -260 329 -150 155 -283 259 -453 356 l-59 33 84
84 c73 74 656 634 1048 1007 316 301 644 519 930 620 123 43 196 56 315 53 92
-2 118 -6 158 -26z m246 -473 c80 -387 108 -695 80 -894 -35 -254 -164 -506
-362 -711 -142 -146 -231 -205 -542 -359 -314 -155 -411 -213 -502 -297 -98
-92 -138 -196 -98 -254 19 -26 67 -38 95 -23 47 25 67 -38 30 -98 -58 -94
-179 -93 -273 3 -159 163 -112 462 107 681 98 97 220 179 466 312 102 55 228
126 280 157 458 278 684 608 683 1000 0 128 -14 201 -58 300 l-23 53 34 84
c18 45 36 98 40 116 3 17 10 32 14 32 4 0 17 -46 29 -102z m-197 -402 c28
-183 -44 -418 -182 -591 -139 -174 -301 -292 -695 -505 -104 -56 -220 -122
-257 -146 -38 -24 -68 -41 -68 -39 0 3 78 92 173 198 381 424 744 849 917
1073 56 73 88 106 92 98 5 -7 13 -46 20 -88z m-2574 -1055 c283 -170 513 -402
656 -662 l36 -65 -69 -75 c-38 -41 -71 -72 -73 -69 -3 3 -24 33 -47 67 -165
247 -425 508 -678 680 -46 31 -83 59 -83 63 0 9 93 97 110 103 37 14 72 4 148
-42z m-243 -269 c239 -171 463 -401 626 -643 l59 -88 -162 -173 c-463 -498
-809 -809 -1163 -1045 -108 -72 -235 -147 -238 -142 -127 177 -255 300 -413
400 -35 23 -64 44 -64 47 0 4 34 70 76 147 271 503 587 950 1011 1432 l134
152 42 -26 c23 -14 65 -42 92 -61z m-1341 -1849 c124 -83 333 -300 310 -323
-15 -15 -225 -96 -295 -114 -96 -24 -183 -22 -210 5 -20 20 -21 29 -16 98 3
42 15 106 27 143 31 100 90 238 102 238 6 0 42 -21 82 -47z"/>
</g>
</svg>
